<svg width="190" height="115" viewBox="0 0 190 115" fill="none" xmlns="http://www.w3.org/2000/svg">
<path d="M180.293 40.7041C182.323 51.2844 174.999 62.9368 160.777 73.2298C146.628 83.4705 125.955 92.1194 102.11 96.6948C78.2653 101.27 55.8591 100.887 38.9247 96.6107C21.9036 92.3124 10.7863 84.1986 8.75617 73.6183C6.72604 63.038 14.0507 51.3855 28.2719 41.0925C42.4208 30.8519 63.094 22.2029 86.9389 17.6276C110.784 13.0522 133.19 13.4352 150.125 17.7116C167.146 22.0099 178.263 30.1238 180.293 40.7041Z" stroke="#FF9921" stroke-width="2"/>
<path d="M45.8869 56.7613C45.8869 55.1133 46.2549 53.6413 46.9909 52.3453C47.7429 51.0333 48.7589 50.0173 50.0389 49.2973C51.3349 48.5613 52.7829 48.1933 54.3829 48.1933C56.2549 48.1933 57.8949 48.6733 59.3029 49.6333C60.7109 50.5933 61.6949 51.9213 62.2549 53.6173H58.3909C58.0069 52.8173 57.4629 52.2173 56.7589 51.8173C56.0709 51.4173 55.2709 51.2173 54.3589 51.2173C53.3829 51.2173 52.5109 51.4493 51.7429 51.9133C50.9909 52.3613 50.3989 53.0013 49.9669 53.8333C49.5509 54.6653 49.3429 55.6413 49.3429 56.7613C49.3429 57.8653 49.5509 58.8413 49.9669 59.6893C50.3989 60.5213 50.9909 61.1693 51.7429 61.6333C52.5109 62.0813 53.3829 62.3053 54.3589 62.3053C55.2709 62.3053 56.0709 62.1053 56.7589 61.7053C57.4629 61.2893 58.0069 60.6813 58.3909 59.8813H62.2549C61.6949 61.5933 60.7109 62.9293 59.3029 63.8893C57.9109 64.8333 56.2709 65.3053 54.3829 65.3053C52.7829 65.3053 51.3349 64.9453 50.0389 64.2253C48.7589 63.4893 47.7429 62.4733 46.9909 61.1773C46.2549 59.8813 45.8869 58.4093 45.8869 56.7613ZM71.0288 65.3773C69.7488 65.3773 68.5968 65.0973 67.5728 64.5373C66.5488 63.9613 65.7408 63.1533 65.1488 62.1133C64.5728 61.0733 64.2848 59.8733 64.2848 58.5133C64.2848 57.1533 64.5808 55.9533 65.1728 54.9133C65.7808 53.8733 66.6048 53.0733 67.6448 52.5133C68.6848 51.9373 69.8448 51.6493 71.1248 51.6493C72.4048 51.6493 73.5648 51.9373 74.6048 52.5133C75.6448 53.0733 76.4608 53.8733 77.0528 54.9133C77.6608 55.9533 77.9648 57.1533 77.9648 58.5133C77.9648 59.8733 77.6528 61.0733 77.0287 62.1133C76.4208 63.1533 75.5888 63.9613 74.5328 64.5373C73.4928 65.0973 72.3248 65.3773 71.0288 65.3773ZM71.0288 62.4493C71.6368 62.4493 72.2048 62.3053 72.7328 62.0173C73.2768 61.7133 73.7088 61.2653 74.0288 60.6733C74.3488 60.0813 74.5088 59.3613 74.5088 58.5133C74.5088 57.2493 74.1728 56.2813 73.5008 55.6093C72.8448 54.9213 72.0368 54.5773 71.0768 54.5773C70.1168 54.5773 69.3088 54.9213 68.6528 55.6093C68.0128 56.2813 67.6928 57.2493 67.6928 58.5133C67.6928 59.7773 68.0048 60.7533 68.6288 61.4413C69.2688 62.1133 70.0688 62.4493 71.0288 62.4493ZM87.7974 51.6733C89.3814 51.6733 90.6614 52.1773 91.6374 53.1853C92.6134 54.1773 93.1014 55.5693 93.1014 57.3613V65.1613H89.7414V57.8173C89.7414 56.7613 89.4774 55.9533 88.9494 55.3933C88.4214 54.8173 87.7014 54.5293 86.7894 54.5293C85.8614 54.5293 85.1254 54.8173 84.5814 55.3933C84.0534 55.9533 83.7894 56.7613 83.7894 57.8173V65.1613H80.4294V51.8653H83.7894V53.5213C84.2374 52.9453 84.8054 52.4973 85.4934 52.1773C86.1974 51.8413 86.9654 51.6733 87.7974 51.6733ZM100.209 54.6253V61.0573C100.209 61.5053 100.313 61.8333 100.521 62.0413C100.745 62.2333 101.113 62.3293 101.625 62.3293H103.185V65.1613H101.073C98.2406 65.1613 96.8246 63.7853 96.8246 61.0333V54.6253H95.2406V51.8653H96.8246V48.5773H100.209V51.8653H103.185V54.6253H100.209ZM104.737 58.4653C104.737 57.1213 105.001 55.9293 105.529 54.8893C106.073 53.8493 106.801 53.0493 107.713 52.4893C108.641 51.9293 109.673 51.6493 110.809 51.6493C111.801 51.6493 112.665 51.8493 113.401 52.2493C114.153 52.6493 114.753 53.1533 115.201 53.7613V51.8653H118.585V65.1613H115.201V63.2173C114.769 63.8413 114.169 64.3613 113.401 64.7773C112.649 65.1773 111.777 65.3773 110.785 65.3773C109.665 65.3773 108.641 65.0893 107.713 64.5133C106.801 63.9373 106.073 63.1293 105.529 62.0893C105.001 61.0333 104.737 59.8253 104.737 58.4653ZM115.201 58.5133C115.201 57.6973 115.041 57.0013 114.721 56.4253C114.401 55.8333 113.969 55.3853 113.425 55.0813C112.881 54.7613 112.297 54.6013 111.673 54.6013C111.049 54.6013 110.473 54.7533 109.945 55.0573C109.417 55.3613 108.985 55.8093 108.649 56.4013C108.329 56.9773 108.169 57.6653 108.169 58.4653C108.169 59.2653 108.329 59.9693 108.649 60.5773C108.985 61.1693 109.417 61.6253 109.945 61.9453C110.489 62.2653 111.065 62.4253 111.673 62.4253C112.297 62.4253 112.881 62.2733 113.425 61.9693C113.969 61.6493 114.401 61.2013 114.721 60.6253C115.041 60.0333 115.201 59.3293 115.201 58.5133ZM121.003 58.5133C121.003 57.1373 121.283 55.9373 121.843 54.9133C122.403 53.8733 123.179 53.0733 124.171 52.5133C125.163 51.9373 126.299 51.6493 127.579 51.6493C129.227 51.6493 130.587 52.0653 131.659 52.8973C132.747 53.7133 133.475 54.8653 133.843 56.3533H130.219C130.027 55.7773 129.699 55.3293 129.235 55.0093C128.787 54.6733 128.227 54.5053 127.555 54.5053C126.595 54.5053 125.835 54.8573 125.275 55.5613C124.715 56.2493 124.435 57.2333 124.435 58.5133C124.435 59.7773 124.715 60.7613 125.275 61.4653C125.835 62.1533 126.595 62.4973 127.555 62.4973C128.915 62.4973 129.803 61.8893 130.219 60.6733H133.843C133.475 62.1133 132.747 63.2573 131.659 64.1053C130.571 64.9533 129.211 65.3773 127.579 65.3773C126.299 65.3773 125.163 65.0973 124.171 64.5373C123.179 63.9613 122.403 63.1613 121.843 62.1373C121.283 61.0973 121.003 59.8893 121.003 58.5133ZM140.216 54.6253V61.0573C140.216 61.5053 140.32 61.8333 140.528 62.0413C140.752 62.2333 141.12 62.3293 141.632 62.3293H143.192V65.1613H141.08C138.248 65.1613 136.832 63.7853 136.832 61.0333V54.6253H135.248V51.8653H136.832V48.5773H140.216V51.8653H143.192V54.6253H140.216Z" fill="#EFEFEF"/>
</svg>
