<svg width="783" height="108" viewBox="0 0 783 108" fill="none" xmlns="http://www.w3.org/2000/svg">
<path d="M76.6158 55.7898C76.6158 69.4133 83.3243 76.222 95.9466 76.222C110.271 76.222 117.18 69.4133 117.18 55.7898V1.80249H120.684V55.4894C120.684 71.6161 112.574 79.7264 95.8464 79.7264C75.1139 79.7264 68.105 69.2068 68.105 55.4894V1.80249H76.6158V55.7898Z" fill="#06113C"/>
<path d="M207.62 77.9241H199.109V11.9216L172.87 77.9241H168.865L138.42 13.4235V77.9241H134.915V6.00783L132.712 1.80249H142.932L173.176 67.004L199.109 1.80249H207.62V77.9241Z" fill="#06113C"/>
<path d="M221.644 1.80249H270.519L274.323 12.222L272.822 13.4235C269.417 5.01282 259.498 5.01282 252.89 5.01282H230.155V38.4678L255.193 37.7669V41.772L230.155 41.1712V74.7263H252.89C259.498 74.7263 269.417 74.7263 272.822 66.3156L274.323 67.5172L270.519 77.9366H221.644V1.80249Z" fill="#06113C"/>
<path d="M317.39 47.9736C321.095 49.1751 324.499 51.3779 327.103 54.9825C334.912 66.1029 353.342 83.6251 369.369 83.6251C389.1 83.6251 401.522 73.1055 406.128 67.6986L407.029 68.3995C403.525 74.4072 388.9 88.1308 369.369 88.1308C345.332 88.1308 327.503 72.1042 315.281 53.174C314.08 51.1714 311.777 48.7684 309.073 48.2677H293.347V77.9116H284.836V1.80249H311.677C328.705 1.80249 338.918 11.1143 338.517 25.0382C338.117 38.6618 330.707 46.3716 317.384 47.9736H317.39ZM306.971 45.0699C320.594 45.0699 328.604 37.7606 328.905 25.0382C329.305 11.5148 321.295 5.00656 309.574 5.00656H293.347V45.0699H306.971Z" fill="#06113C"/>
<path d="M369.97 16.4381L350.586 13.1099L358.223 27.6404L369.124 22.2567L369.97 16.4381Z" fill="#FF8C32"/>
<path d="M399.253 35.1747L406.89 31.4037L399.253 27.6406L397.276 31.4116L399.253 35.1747Z" fill="#FF8C32"/>
<path d="M387.513 16.4383L385.386 1.80493L378.738 8.61959L386.525 16.6043L387.513 16.4383Z" fill="#FF8C32"/>
<path d="M378.738 54.1959L385.386 61.0105L387.513 46.3772L386.525 46.2112L378.738 54.1959Z" fill="#FF8C32"/>
<path d="M358.223 35.1746L350.586 49.7051L369.97 46.3768L369.124 40.5583L358.223 35.1746Z" fill="#FF8C32"/>
<path d="M387.513 46.3768L406.89 49.7051L399.253 35.1746L388.359 40.5583L387.513 46.3768Z" fill="#FF8C32"/>
<path d="M399.253 27.6404L406.89 13.1099L387.513 16.4381L388.359 22.2567L399.253 27.6404Z" fill="#FF8C32"/>
<path d="M378.738 54.1959L370.958 46.2112L369.97 46.3772L372.097 61.0105L378.738 54.1959Z" fill="#FF8C32"/>
<path d="M358.223 27.6406L350.586 31.4116L358.223 35.1747L360.207 31.4116L358.223 27.6406Z" fill="#FF8C32"/>
<path d="M378.738 8.61959L372.097 1.80493L369.97 16.4383L370.958 16.6043L378.738 8.61959Z" fill="#FF8C32"/>
<path d="M492.163 77.9241H483.652V11.9216L457.413 77.9241H453.407L422.956 13.4235V77.9241H419.452V6.00783L417.249 1.80249H427.468L457.713 67.004L483.646 1.80249H492.157V77.9241H492.163Z" fill="#06113C"/>
<path d="M562.971 1.80249H549.548L548.847 4.10541L555.756 4.50592C560.061 5.00656 563.265 5.50719 562.765 13.9179C561.863 30.4451 556.156 55.1828 544.135 74.5135L510.686 1.80249H500.673L538.233 82.8303C530.424 92.5427 520.805 100.559 506.981 100.559C495.961 100.559 488.958 96.9796 488.958 90.271C488.958 88.6878 489.659 86.5163 490.229 85.1708C489.747 84.9205 489.797 84.9706 489.246 84.7015C488.339 86.6665 487.469 89.3949 487.469 90.8217C487.469 101.241 496.161 107.074 505.98 107.074C523.609 107.074 536.331 93.5502 545.242 80.5337C558.866 60.502 565.775 34.4627 568.578 12.829C569.479 5.92022 571.081 1.80875 562.971 1.80875V1.80249Z" fill="#06113C"/>
<path d="M632.378 15.526L617.152 35.7579C627.171 38.0608 634.781 42.0659 634.581 56.1901C634.38 69.9137 620.657 79.4258 604.636 79.4258C589.611 79.4258 579.899 74.4195 573.891 63.8999L585.612 47.8733L587.214 48.7744C585.913 51.4778 582.008 58.4867 580.706 61.4968C582.709 70.2079 595.431 76.2218 604.643 76.2218C613.053 76.2218 628.78 69.6134 628.479 57.4917C628.179 45.8707 613.554 44.8695 604.242 42.8669C593.322 40.4639 577.202 39.2623 577.202 21.834C577.202 5.50699 591.626 0 604.643 0C617.659 0 626.377 5.00636 632.384 15.526H632.378ZM625.569 17.929C623.567 9.21795 613.848 3.20407 604.636 3.20407C594.317 3.20407 583.303 8.61093 583.303 19.8314C583.303 30.0506 598.228 31.9531 604.837 33.3548C608.241 34.0557 611.645 34.5564 614.849 35.2573C617.753 30.4512 624.462 20.4322 625.563 17.929H625.569Z" fill="#06113C"/>
<path d="M639.987 1.8024H713.105L716.91 12.2219L715.408 13.4234C712.004 5.01273 702.085 5.01273 695.477 5.01273H678.949V77.9303H670.439V5.00647H657.616C651.008 5.00647 641.089 5.00647 637.685 13.4171L636.183 12.2156L639.987 1.79614V1.8024ZM706.19 77.924H697.679V16.227H706.19V77.924Z" fill="#06113C"/>
<path d="M778.901 15.526L767.18 31.5526L765.578 30.6514C766.879 27.948 770.784 20.9391 772.086 17.929C770.084 9.21795 760.872 3.20407 751.654 3.20407C737.83 3.20407 726.416 17.0279 726.416 39.2623C726.416 59.9949 736.428 75.7211 752.555 75.7211C768.682 75.7211 779.395 62.1977 781.298 52.4854L783 52.986C779.395 67.2103 768.375 79.7262 752.555 79.7262C726.516 79.7262 715.896 60.1952 715.896 39.2623C715.896 14.0241 731.322 0 751.654 0C764.176 0 772.887 5.00636 778.895 15.526H778.901Z" fill="#06113C"/>
<path d="M53.8872 77.9241H48.4803L5.50699 10.4197V77.9241H2.00254V4.90643L0 1.80249H10.0127L50.3765 64.3006V1.80249H53.8809V77.9241H53.8872Z" fill="#06113C"/>
</svg>
