<svg width="272" height="43" viewBox="0 0 272 43" fill="none" xmlns="http://www.w3.org/2000/svg">
<g opacity="0.5">
<path d="M84.4145 17.5192C85.2979 16.9781 85.9742 16.1779 86.3422 15.2385C86.7102 14.299 86.7501 13.2707 86.456 12.3077C86.1618 11.3447 85.5494 10.4988 84.7105 9.89655C83.8716 9.29431 82.8512 8.9682 81.8023 8.96704H72.6051C71.5561 8.9682 70.5358 9.29431 69.6968 9.89655C68.8579 10.4988 68.2455 11.3447 67.9513 12.3077C67.6572 13.2707 67.6971 14.299 68.0651 15.2385C68.4332 16.1779 69.1095 16.9781 69.9928 17.5192C69.2915 17.9486 68.7175 18.5434 68.3259 19.2463C67.9344 19.9492 67.7385 20.7366 67.7571 21.5329C67.7757 22.3291 68.0082 23.1074 68.4322 23.7929C68.8561 24.4784 69.4573 25.048 70.178 25.447C69.4005 25.9337 68.7685 26.6052 68.3439 27.3957C67.9193 28.1862 67.7166 29.0687 67.7557 29.9566C67.7949 30.8446 68.0745 31.7076 68.5672 32.4611C69.0598 33.2147 69.7487 33.8329 70.5663 34.2553C71.3838 34.6776 72.3021 34.8897 73.2311 34.8706C74.1601 34.8516 75.068 34.602 75.8659 34.1465C76.6638 33.691 77.3243 33.0451 77.7827 32.272C78.2411 31.499 78.4818 30.6253 78.4811 29.7365V24.8105C78.9722 25.2575 79.5558 25.6012 80.1943 25.8193C80.8328 26.0375 81.512 26.1253 82.1881 26.0771C82.8642 26.0289 83.5223 25.8458 84.1199 25.5395C84.7175 25.2332 85.2414 24.8106 85.6579 24.2989C86.0743 23.7871 86.374 23.1976 86.5378 22.5684C86.7015 21.9391 86.7255 21.284 86.6084 20.6453C86.4913 20.0066 86.2355 19.3984 85.8577 18.86C85.4798 18.3216 84.9882 17.8648 84.4145 17.5192ZM85.1235 13.6096C85.1235 14.4521 84.7736 15.2601 84.1507 15.8558C83.5279 16.4515 82.6831 16.7861 81.8023 16.7861H78.4811V10.4331H81.8023C82.6831 10.4331 83.5279 10.7678 84.1507 11.3635C84.7736 11.9592 85.1235 12.7672 85.1235 13.6096ZM69.2838 13.6096C69.2838 12.7672 69.6338 11.9592 70.2566 11.3635C70.8795 10.7678 71.7242 10.4331 72.6051 10.4331H76.9482V16.7861H72.6051C71.7242 16.7861 70.8795 16.4515 70.2566 15.8558C69.6338 15.2601 69.2838 14.4521 69.2838 13.6096ZM72.6051 24.6052C71.7242 24.6052 70.8795 24.2706 70.2566 23.6749C69.6338 23.0792 69.2838 22.2712 69.2838 21.4287C69.2838 20.5863 69.6338 19.7783 70.2566 19.1826C70.8795 18.5869 71.7242 18.2522 72.6051 18.2522H76.9482V24.6052H72.6051ZM76.9482 29.7365C76.9482 30.4614 76.7234 31.1701 76.3023 31.7728C75.8813 32.3756 75.2828 32.8453 74.5825 33.1227C73.8823 33.4002 73.1118 33.4727 72.3684 33.3313C71.625 33.1899 70.9422 32.8408 70.4063 32.3282C69.8703 31.8156 69.5053 31.1626 69.3575 30.4516C69.2096 29.7406 69.2855 29.0037 69.5756 28.3339C69.8656 27.6642 70.3568 27.0918 70.987 26.689C71.6172 26.2863 72.3581 26.0713 73.116 26.0713H76.9482V29.7365ZM81.8023 24.6052C81.1454 24.6052 80.5033 24.419 79.9571 24.0699C79.4109 23.7209 78.9852 23.2248 78.7339 22.6443C78.4825 22.0639 78.4167 21.4252 78.5449 20.809C78.673 20.1928 78.9893 19.6268 79.4538 19.1826C79.9183 18.7384 80.5101 18.4358 81.1543 18.3133C81.7986 18.1907 82.4664 18.2536 83.0732 18.494C83.6801 18.7344 84.1988 19.1416 84.5638 19.664C84.9287 20.1863 85.1235 20.8005 85.1235 21.4287C85.1235 22.2712 84.7736 23.0792 84.1507 23.6749C83.5279 24.2706 82.6831 24.6052 81.8023 24.6052Z" fill="#EFEFEF" stroke="#EFEFEF" stroke-width="0.5"/>
<rect x="56.2949" y="0.5" width="41.8425" height="41.8425" stroke="#EFEFEF"/>
</g>
<g opacity="0.5">
<rect x="0.5" y="0.5" width="41.8425" height="41.8425" stroke="#EFEFEF"/>
<path d="M26.9611 18.618C26.9611 18.618 25.1031 24.4743 24.9512 24.9579C24.4833 21.2876 24.011 17.6179 23.5343 13.9487C20.3681 13.9487 18.6752 16.2133 17.7805 18.6036L15.3314 24.9723C15.3171 24.5156 14.9877 18.6727 14.9877 18.6727C14.7929 15.7441 12.1232 13.9612 9.96338 13.9612L12.5786 29.8901C15.8957 29.8757 17.6841 27.6246 18.6208 25.2343C18.6208 25.2343 20.6163 20.0545 20.6985 19.8194C20.7128 20.0401 22.1307 29.8892 22.1307 29.8892C25.4611 29.8892 27.2505 27.7762 28.2129 25.4694L32.8791 13.9622C29.5898 13.9622 27.8558 16.2133 26.9611 18.6171V18.618Z" fill="#EFEFEF"/>
</g>
<g opacity="0.5">
<rect x="114.082" y="0.5" width="41.8425" height="41.8425" stroke="#EFEFEF"/>
<path d="M143.867 10.9597C142.834 10.9597 142.039 11.6372 142.039 12.7872H142.032C142.032 13.9667 142.765 14.6147 143.832 14.6147C144.927 14.6147 145.694 13.9654 145.694 12.7872C145.694 11.6988 144.955 10.9597 143.867 10.9597Z" fill="#EFEFEF"/>
<path d="M142.443 16.6497C142.298 16.6497 142.241 16.706 142.241 16.8452L142.255 16.8439V30.923C142.255 31.0689 142.311 31.1533 142.492 31.1533H145.254C145.434 31.1533 145.463 31.097 145.463 30.9511V16.8586C145.463 16.706 145.408 16.6497 145.247 16.6497H142.443Z" fill="#EFEFEF"/>
<path fill-rule="evenodd" clip-rule="evenodd" d="M129.027 25.6105L127.612 30.9591C127.584 31.1131 127.528 31.1399 127.354 31.1399H124.732C124.551 31.1399 124.523 31.0836 124.551 30.8815L129.62 13.1286C129.711 12.8073 129.766 12.5221 129.794 11.6358C129.794 11.5167 129.857 11.4618 129.948 11.4618H133.686C133.805 11.4618 133.867 11.4899 133.895 11.6358L139.578 30.9096C139.613 31.0555 139.578 31.1399 139.432 31.1399H136.49C136.336 31.1399 136.253 31.1051 136.225 30.9859L134.747 25.6092H129.022L129.027 25.6105ZM133.462 20.6194C133.675 21.4319 133.867 22.1612 134.006 22.7093H129.796C129.85 22.5014 129.907 22.2891 129.964 22.0735C130.666 19.4177 131.504 16.2482 131.852 14.3202H131.887C132.204 15.8316 132.907 18.5066 133.462 20.6194Z" fill="#EFEFEF"/>
</g>
<g opacity="0.5">
<rect x="171.87" y="0.5" width="41.8425" height="41.8425" stroke="#EFEFEF"/>
<path fill-rule="evenodd" clip-rule="evenodd" d="M183.963 25.3712L182.505 30.4347C182.476 30.5734 182.411 30.6269 182.231 30.6269H179.53C179.351 30.6269 179.322 30.567 179.351 30.3749L184.574 13.52C184.661 13.2146 184.725 12.9703 184.754 12.1278C184.754 12.0146 184.812 11.9561 184.904 11.9561H188.763C188.886 11.9561 188.943 11.9891 188.972 12.1278L194.829 30.4003C194.858 30.5391 194.829 30.6192 194.678 30.6192H191.646C191.495 30.6192 191.401 30.5734 191.372 30.4602L189.856 25.3636H183.963V25.3712ZM188.457 20.2906C188.72 21.1973 188.958 22.0183 189.122 22.6136H184.725C184.791 22.3833 184.86 22.1473 184.929 21.9072C185.655 19.4042 186.513 16.4478 186.873 14.6399H186.902C187.211 15.9932 187.891 18.3404 188.457 20.2906Z" fill="#EFEFEF"/>
<path fill-rule="evenodd" clip-rule="evenodd" d="M202.991 28.1887C200.199 28.1887 199.02 26.6536 198.982 24.3583H203.775C205.385 24.3583 206.477 24.3048 206.844 24.245C206.994 24.2183 207.052 24.1712 207.088 24.0325C207.173 23.722 207.238 23.0527 207.238 22.237C207.238 19.7186 205.845 16.6098 201.842 16.6098C197.889 16.6098 195.647 19.884 195.647 23.8875C195.647 27.5855 197.465 30.8865 202.324 30.8865C203.84 30.8865 205.047 30.6879 206.017 30.2438C206.145 30.1573 206.203 30.0708 206.203 29.9053V27.7776C206.203 27.6376 206.111 27.6046 205.988 27.658C205.018 28.0563 204.084 28.1887 202.991 28.1887ZM202.72 22.0168H199.012C199.191 20.505 199.953 19.0734 201.714 19.0734C203.626 19.0734 204.114 20.771 204.114 21.6987C204.114 21.7346 204.108 21.7747 204.102 21.8184C204.094 21.8708 204.086 21.9284 204.086 21.9901C203.992 22.0168 203.661 22.0168 202.72 22.0168Z" fill="#EFEFEF"/>
</g>
<g opacity="0.5">
<rect x="229.657" y="0.5" width="41.8425" height="41.8425" stroke="#EFEFEF"/>
</g>
<g opacity="0.5">
<path d="M256.046 19.894C256.046 19.3089 256.528 18.5996 257.967 18.5996L257.96 18.5943C259.122 18.5943 260.313 18.8935 261.122 19.3597C261.299 19.4225 261.392 19.3317 261.392 19.186V16.7442C261.392 16.6253 261.363 16.4797 261.215 16.3889C260.612 16.131 259.513 15.8946 257.953 15.8946C254.784 15.8946 252.954 17.8008 252.954 20.0971C252.954 22.1569 254.033 23.3885 256.614 24.5988C258.436 25.5379 258.854 26.0949 258.854 26.7414C258.854 27.5402 258.258 28.1253 256.819 28.1253C255.523 28.1282 254.255 27.7605 253.168 27.0674C253.048 26.9765 252.963 27.0393 252.963 27.213V29.8285C252.963 29.9754 252.991 30.0649 253.104 30.121C253.884 30.5592 255.237 30.8865 256.826 30.8865C259.818 30.8865 262.037 29.3556 262.037 26.5103C262.037 24.5974 261.137 23.311 258.293 21.9539C256.373 20.98 256.046 20.5406 256.046 19.894Z" fill="#EFEFEF"/>
<path fill-rule="evenodd" clip-rule="evenodd" d="M239.121 11.2593C239.121 11.1404 239.377 11.0509 239.525 11.0509C241.085 10.9862 242.645 10.9559 244.205 10.9601C249.239 10.9601 251.196 13.6665 251.196 17.1316C251.196 21.6613 247.85 23.6023 243.751 23.6023C243.372 23.6023 243.13 23.5919 242.91 23.5825C242.727 23.5747 242.56 23.5675 242.341 23.5675V30.4136C242.341 30.5592 242.283 30.622 242.135 30.622H239.327C239.178 30.622 239.121 30.5659 239.121 30.4203V11.2593ZM243.815 20.7503C243.092 20.7503 242.758 20.7503 242.341 20.7222V13.8428C242.674 13.8147 243.361 13.7867 244.078 13.7867C246.502 13.7867 247.934 14.9341 247.934 17.1957C247.934 20.0129 245.934 20.7503 243.815 20.7503Z" fill="#EFEFEF"/>
</g>
</svg>
