<svg width="68" height="58" viewBox="0 0 68 58" fill="none" xmlns="http://www.w3.org/2000/svg">
<path d="M31.2933 29.3818L25.5695 21.1963H6.44419V29.3916H0V0H25.2241C33.1585 0 38.1224 4.07321 38.1224 10.6665C38.1224 15.0719 35.8723 18.305 32.0137 19.946L38.675 29.3916H31.2933V29.3818ZM24.8491 5.53839H6.44419V15.7849H24.8491C29.0433 15.7849 31.165 13.8509 31.165 10.6568C31.165 7.46267 29.0433 5.53839 24.8491 5.53839Z" fill="#FF9921"/>
<path d="M67.9155 6.79842V29.3818H61.5996V26.7835C59.9417 28.7566 57.5239 29.7236 54.4745 29.7236C48.0303 29.7236 43.0664 25.1913 43.0664 18.0999C43.0664 11.0084 48.0303 6.47607 54.4745 6.47607C57.2772 6.47607 59.6456 7.35518 61.3036 9.20131V6.80818H67.9155V6.79842ZM61.422 18.0901C61.422 14.1829 58.8759 11.8386 55.6094 11.8386C52.3429 11.8386 49.7573 14.1927 49.7573 18.0901C49.7573 21.9875 52.3034 24.3415 55.6094 24.3415C58.9154 24.3415 61.422 21.9875 61.422 18.0901Z" fill="#FF9921"/>
<path d="M38.6749 44.5903V57.523H32.063V45.5964C32.063 41.9432 30.405 40.2632 27.7405 40.2632C24.7701 40.2632 22.6977 42.1484 22.6977 46.1825V57.5133H16.0857V45.5867C16.0857 41.9335 14.5166 40.2534 11.7633 40.2534C8.83231 40.2534 6.7599 42.1386 6.7599 46.1727V57.5035H0.147949V34.9201H6.46384V37.5184C8.16124 35.5843 10.7073 34.5782 13.6284 34.5782C16.8061 34.5782 19.52 35.7992 21.1384 38.2705C22.9641 35.9653 25.9346 34.5782 29.3688 34.5782C34.7966 34.5782 38.7045 37.6844 38.7045 44.5708L38.6749 44.5903Z" fill="#FF9921"/>
<path d="M67.9155 34.93V57.5134H61.5996V54.9151C59.9417 56.8882 57.5239 57.8552 54.4745 57.8552C48.0303 57.8552 43.0664 53.3229 43.0664 46.2315C43.0664 39.14 48.0303 34.6077 54.4745 34.6077C57.2772 34.6077 59.6456 35.4868 61.3036 37.3329V34.9398H67.9155V34.93ZM61.422 46.2217C61.422 42.3145 58.8759 39.9702 55.6094 39.9702C52.3429 39.9702 49.7573 42.3243 49.7573 46.2217C49.7573 50.1191 52.3034 52.4731 55.6094 52.4731C58.9154 52.4731 61.422 50.1191 61.422 46.2217Z" fill="#FF9921"/>
</svg>
