<svg width="209" height="67" viewBox="0 0 209 67" fill="none" xmlns="http://www.w3.org/2000/svg">
<rect x="1" y="1" width="207" height="65" rx="32.5" stroke="#FF8C32" stroke-width="2"/>
<path d="M38.31 23.09V44H48.36V41.78H41.04V23.09H38.31ZM58.2492 29.6C61.0692 29.6 63.4692 31.37 63.4392 34.58H53.0592C53.3592 31.37 55.5792 29.6 58.2492 29.6ZM65.9292 38.93H62.9892C62.3892 40.7 60.8292 41.96 58.3692 41.96C55.5792 41.96 53.2392 40.13 53.0292 36.8H66.1692C66.2292 36.23 66.2592 35.75 66.2592 35.15C66.2592 30.65 63.1392 27.29 58.3692 27.29C53.5692 27.29 50.2392 30.56 50.2392 35.75C50.2392 40.97 53.6892 44.27 58.3692 44.27C62.4492 44.27 65.0892 41.93 65.9292 38.93ZM70.4627 39.5C70.4627 42.8 72.1127 44 75.0227 44H77.4827V41.69H75.4727C73.7927 41.69 73.1927 41.12 73.1927 39.5V29.81H77.4827V27.56H73.1927V23.42H70.4627V27.56H68.3327V29.81H70.4627V39.5ZM81.3605 29.9L84.2405 23.09H81.2105L79.4405 29.9H81.3605ZM99.173 39.53C99.053 33.65 89.513 35.78 89.513 31.88C89.513 30.56 90.713 29.6 92.723 29.6C94.913 29.6 96.173 30.8 96.293 32.45H99.023C98.843 29.24 96.443 27.29 92.813 27.29C89.153 27.29 86.783 29.36 86.783 31.88C86.783 38 96.503 35.87 96.503 39.53C96.503 40.88 95.303 41.96 93.143 41.96C90.833 41.96 89.423 40.76 89.273 39.17H86.453C86.633 42.17 89.333 44.27 93.173 44.27C96.803 44.27 99.173 42.23 99.173 39.53ZM109.735 25.31H115.465V44H118.195V25.31H123.895V23.09H109.735V25.31ZM126.235 35.72C126.235 40.82 129.625 44.27 134.005 44.27C137.035 44.27 139.165 42.71 140.155 40.94V44H142.915V27.56H140.155V30.56C139.195 28.85 137.095 27.29 134.035 27.29C129.625 27.29 126.235 30.59 126.235 35.72ZM140.155 35.75C140.155 39.62 137.575 41.87 134.575 41.87C131.575 41.87 129.025 39.59 129.025 35.72C129.025 31.85 131.575 29.66 134.575 29.66C137.575 29.66 140.155 31.94 140.155 35.75ZM147.529 44H150.259V21.8H147.529V44ZM154.912 44H157.642V36.74L164.092 44H167.812L160.042 35.75L167.782 27.56H163.972L157.642 34.85V21.8H154.912V44Z" fill="#EFEFEF"/>
</svg>
