<svg width="288" height="89" viewBox="0 0 288 89" fill="none" xmlns="http://www.w3.org/2000/svg">
<path d="M0.36528 88.2928H15.5609V29.4564H0.36528V88.2928ZM0 14.8045H27.3229C32.7291 14.8045 34.9938 18.0859 34.9938 24.2672V88.2928H50.2625V19.4595C50.2625 6.25757 43.5414 0 33.4596 0H0V14.8045Z" fill="#070E2B"/>
<path d="M60.1251 88.2928H89.2013V15.7202C89.2013 4.73134 83.503 0 74.9554 0H61.367V14.8045H69.0379C71.5948 14.8045 73.9326 15.9492 73.9326 20.5279L73.8596 73.8699H60.1251V88.2928Z" fill="#070E2B"/>
<path d="M104.105 88.2928H119.447V14.8045H132.085C137.491 14.8045 139.756 18.0859 139.756 24.2672V88.2928H155.025V19.4595C155.025 6.25757 148.304 0 138.222 0H104.105V88.2928Z" fill="#070E2B"/>
<path d="M164.887 88.2928H189.58V14.8045H201.123C206.529 14.8045 208.794 18.0859 208.794 24.2672V88.2928H224.063V19.4595C224.063 6.25757 217.341 0 207.26 0H167.663V14.8045H174.604L174.677 73.641H164.887V88.2928Z" fill="#070E2B"/>
<path d="M237.651 88.2928H252.847V29.4564H237.651V88.2928ZM237.286 14.8045H264.609C270.015 14.8045 272.28 18.0859 272.28 24.2672V88.2928H287.548V19.4595C287.548 6.25757 280.827 0 270.745 0H237.286V14.8045Z" fill="#070E2B"/>
</svg>
