<svg width="344" height="101" viewBox="0 0 344 101" fill="none" xmlns="http://www.w3.org/2000/svg">
<path d="M122.074 33.5892H122.953C123.102 33.5918 123.25 33.6258 123.385 33.689C123.521 33.7522 123.642 33.8431 123.74 33.956C123.838 34.0688 123.911 34.201 123.954 34.3439C123.998 34.4868 124.01 34.6372 123.992 34.7854C123.212 41.1023 120.275 46.9585 115.675 51.3686C111.076 55.7787 105.095 58.4736 98.7377 59C98.4573 55.7717 98.8521 52.5205 99.8972 49.4525C100.942 46.3845 102.615 43.5666 104.809 41.1775C107.003 38.7884 109.67 36.8803 112.642 35.574C115.614 34.2677 118.826 33.5919 122.074 33.5892ZM102.494 37.4434C105.055 34.8628 108.105 32.8168 111.467 31.4249C114.828 30.033 118.434 29.323 122.074 29.3364H122.899C123.051 29.3409 123.202 29.3132 123.342 29.2549C123.482 29.1966 123.608 29.1092 123.711 28.9985C123.814 28.8878 123.893 28.7563 123.941 28.6129C123.99 28.4695 124.007 28.3174 123.992 28.1669C123.249 22.016 120.459 16.2918 116.068 11.9111C111.678 7.53032 105.941 4.74647 99.7767 4.00538C99.6258 3.99018 99.4734 4.00729 99.3296 4.05557C99.1859 4.10386 99.0542 4.1822 98.9432 4.28536C98.8322 4.38852 98.7446 4.51412 98.6862 4.65378C98.6278 4.79343 98.6 4.94391 98.6045 5.09517C98.7246 8.86542 98.0678 12.6201 96.6749 16.1269C95.2819 19.6337 93.1824 22.8178 90.5062 25.4823C87.9455 28.0629 84.8952 30.1088 81.5336 31.5007C78.1719 32.8926 74.5661 33.6026 70.9265 33.5892H70.1007C69.9491 33.5847 69.7983 33.6125 69.6583 33.6708C69.5183 33.729 69.3925 33.8164 69.2891 33.9272C69.1857 34.0379 69.1072 34.1693 69.0588 34.3127C69.0104 34.4561 68.9932 34.6082 69.0085 34.7588C69.7512 40.9096 72.5412 46.6338 76.9317 51.0146C81.3221 55.3953 87.059 58.1792 93.2234 58.9203C93.3743 58.9355 93.5267 58.9183 93.6705 58.8701C93.8142 58.8218 93.9459 58.7434 94.0569 58.6403C94.1679 58.5371 94.2555 58.4115 94.3139 58.2719C94.3723 58.1322 94.4001 57.9817 94.3956 57.8305C94.2755 54.0602 94.9323 50.3055 96.3252 46.7987C97.7182 43.292 99.8177 40.1078 102.494 37.4434ZM87.496 22.4787C89.7881 20.2004 91.5803 17.4714 92.7589 14.4651C93.9375 11.4588 94.4767 8.24079 94.3423 5.01543C94.3326 4.8707 94.2933 4.72949 94.2268 4.60048C94.1603 4.47147 94.0681 4.3574 93.9558 4.26528C93.8436 4.17315 93.7136 4.10493 93.5739 4.06481C93.4342 4.02468 93.2877 4.0135 93.1435 4.03196C87.0037 4.78151 81.2918 7.5597 76.9179 11.9239C72.544 16.2882 69.7597 21.9874 69.0085 28.1137C68.9899 28.2597 69.0019 28.4079 69.0437 28.549C69.0856 28.6902 69.1563 28.8211 69.2514 28.9335C69.3466 29.0459 69.4641 29.1374 69.5965 29.2022C69.729 29.267 69.8734 29.3036 70.0208 29.3098C73.2485 29.437 76.4676 28.8956 79.4752 27.7199C82.4829 26.5442 85.2138 24.7597 87.496 22.4787Z" fill="#BDFA07"/>
<path d="M44.2695 100.087H46.827V85.5845L53.3192 100.087H55.1179L61.5819 85.6126V100.087H64.1395V80.6757H61.4133L54.2185 96.7205L47.0238 80.6757H44.2695V100.087Z" fill="#BDFA07"/>
<path d="M73.2546 92.7093V100.087H75.8121V92.7093L82.1918 80.5354H79.3532L74.5193 90.4372L69.6853 80.5354H66.8467L73.2546 92.7093Z" fill="#BDFA07"/>
<path d="M98.4808 80.5354H92.3821V100.087H98.4808C104.917 100.087 108.88 96.412 108.88 90.3531C108.88 84.2942 104.917 80.5354 98.4808 80.5354ZM94.9396 97.9828V82.6111H98.4808C103.596 82.6111 106.266 85.5845 106.266 90.3531C106.266 95.1217 103.596 97.9828 98.4808 97.9828H94.9396Z" fill="#BDFA07"/>
<path d="M112.253 100.087H114.81V80.5354H112.253V100.087Z" fill="#BDFA07"/>
<path d="M128.05 80.311C122.542 80.311 118.214 84.4344 118.214 90.297C118.214 96.1595 122.542 100.255 128.05 100.255C133.362 100.255 137.212 96.3559 137.662 91.5032V89.5396H127.123V91.6154H134.936C134.543 95.4863 131.901 97.9548 128.05 97.9548C123.919 97.9548 120.827 94.9814 120.827 90.297C120.827 85.5845 123.919 82.6111 128.05 82.6111C130.805 82.6111 132.941 83.9295 134.009 86.2016H137.072C135.61 82.4428 132.182 80.311 128.05 80.311Z" fill="#BDFA07"/>
<path d="M141.044 100.087H143.601V80.5354H141.044V100.087Z" fill="#BDFA07"/>
<path d="M146.752 82.6111H152.119V100.087H154.677V82.6111H160.017V80.5354H146.752V82.6111Z" fill="#BDFA07"/>
<path d="M176.318 100.087H179.016L171.962 80.6476H169.011L161.928 100.087H164.626L166.2 95.7388H174.744L176.318 100.087ZM174.013 93.663H166.931L170.472 83.7893L174.013 93.663Z" fill="#BDFA07"/>
<path d="M182.103 80.5354V100.087H191.518V98.0109H184.66V80.5354H182.103Z" fill="#BDFA07"/>
<path d="M200.771 90.297C200.771 96.1595 205.071 100.255 210.551 100.255C214.795 100.255 218.168 98.1511 219.629 94.3924H216.566C215.498 96.7205 213.418 98.0389 210.551 98.0389C206.448 98.0389 203.385 95.0656 203.385 90.297C203.385 85.5003 206.448 82.527 210.551 82.527C213.418 82.527 215.498 83.8454 216.566 86.2016H219.629C218.168 82.4148 214.795 80.283 210.551 80.283C205.071 80.283 200.771 84.4344 200.771 90.297Z" fill="#BDFA07"/>
<path d="M242.154 90.297C242.154 84.4344 237.854 80.311 232.317 80.311C226.809 80.311 222.481 84.4344 222.481 90.297C222.481 96.1595 226.809 100.283 232.317 100.283C237.854 100.283 242.154 96.1595 242.154 90.297ZM225.094 90.297C225.094 85.5003 228.186 82.527 232.317 82.527C236.449 82.527 239.54 85.5003 239.54 90.297C239.54 95.0656 236.449 98.067 232.317 98.067C228.186 98.067 225.094 95.0656 225.094 90.297Z" fill="#BDFA07"/>
<path d="M258.683 100.087H261.381L254.327 80.6476H251.376L244.293 100.087H246.991L248.565 95.7388H257.109L258.683 100.087ZM256.378 93.663H249.296L252.837 83.7893L256.378 93.663Z" fill="#BDFA07"/>
<path d="M263.512 90.297C263.512 96.1595 267.812 100.255 273.293 100.255C277.536 100.255 280.909 98.1511 282.37 94.3924H279.307C278.239 96.7205 276.159 98.0389 273.293 98.0389C269.189 98.0389 266.126 95.0656 266.126 90.297C266.126 85.5003 269.189 82.527 273.293 82.527C276.159 82.527 278.239 83.8454 279.307 86.2016H282.37C280.909 82.4148 277.536 80.283 273.293 80.283C267.812 80.283 263.512 84.4344 263.512 90.297Z" fill="#BDFA07"/>
<path d="M298.712 100.087H301.27V80.5354H298.712V89.1189H288.735V80.5354H286.177V100.087H288.735V91.2227H298.712V100.087Z" fill="#BDFA07"/>
<path d="M63.6303 19.7569L63.0738 2.87538C41.369 3.71018 21.9831 3.24639 1.39133 2.04056L0 19.1076C6.21463 19.6641 13.7278 20.0352 21.7976 20.2207C21.6121 34.3195 21.3338 46.0067 20.6845 60.7549L40.998 61.3114C41.6473 46.3778 41.9255 34.9688 42.0183 20.4062C49.6243 20.3134 57.0447 20.1279 63.6303 19.7569Z" fill="white"/>
<path d="M175.594 61.0331L196 60.9404C196.093 43.1313 196 27.0846 195.815 3.24641L175.501 2.68987L175.594 34.134L150.55 3.43192V3.06089L130.144 2.68987C130.051 25.415 130.051 38.9573 129.216 60.8476L149.808 61.4042C150.179 50.459 150.457 40.3486 150.55 29.0324L175.594 61.0331Z" fill="white"/>
<path d="M248.378 61.0331L268.784 60.9404C268.877 43.1313 268.784 27.0846 268.599 3.24641L248.285 2.68987L248.378 34.134L223.334 3.43192V3.06089L202.928 2.68987C202.835 25.415 202.835 38.9573 202 60.8476L222.592 61.4042C222.963 50.459 223.241 40.3486 223.334 29.0324L248.378 61.0331Z" fill="white"/>
<path d="M318.95 61.1259V42.2038C325.814 32.5572 334.162 21.0555 343.531 7.60595L325.165 1.11307C320.62 8.1625 314.312 17.5308 308.933 25.1368L290.66 0L273.5 8.62628L298.637 42.2038L298.544 60.7549L318.95 61.1259Z" fill="white"/>
</svg>
